<?xml version="1.0" encoding="iso-8859-1"?>
<!-- Generator: Adobe Illustrator 19.0.0, SVG Export Plug-In . SVG Version: 6.00 Build 0)  -->
<svg version="1.1" id="Layer_1" xmlns="http://www.w3.org/2000/svg" xmlns:xlink="http://www.w3.org/1999/xlink" x="0px" y="0px"
	 viewBox="0 0 512 512" style="enable-background:new 0 0 512 512;" xml:space="preserve">
<path d="M0,355.2v-324c0.104-5.704,4.696-10.296,10.4-10.4h491.2c5.704,0.104,10.296,4.696,10.4,10.4v324H0z"/>
<g>
	<path style="fill:#E2E2E2;" d="M512,355.2v41.6c-0.104,5.704-4.696,10.296-10.4,10.4H10.4c-5.704-0.104-10.296-4.696-10.4-10.4
		v-41.6H512z"/>
	<rect x="146.4" y="480.8" style="fill:#E2E2E2;" width="219.2" height="10.4"/>
</g>
<polygon style="fill:#CECECE;" points="328.8,480.8 183.2,480.8 193.6,407.2 318.4,407.2 "/>
<rect x="20.8" y="41.6" style="fill:#FFFFFF;" width="470.4" height="292.8"/>
<polygon style="fill:#B7B7B7;" points="318.4,407.2 193.6,407.2 187.792,448.28 320.272,420.424 "/>
<path d="M139.928,179.152c-8.296,2.976-17.032,4.536-25.848,4.608c-11.56,0.656-22.896-3.344-31.48-11.112
	c-7.952-8.456-12.184-19.752-11.736-31.352c0.128-25.104,17.36-43.472,45.6-43.472c7.192-0.168,14.336,1.152,20.992,3.88
	l-2.616,8.864c-5.872-2.552-12.224-3.784-18.624-3.616c-17.328-1.368-32.496,11.568-33.864,28.904c-0.128,1.648-0.128,3.304,0,4.944
	c0,21.344,12.872,33.968,32.472,33.968c4.936,0.272,9.864-0.496,14.488-2.24v-25.104h-17.104v-8.76h27.72V179.152z"/>
<path style="fill:#E21B1B;" d="M211.528,152.16c1.416,16.256-10.616,30.576-26.872,31.992c-1.072,0.096-2.152,0.128-3.232,0.104
	c-15.864,0.184-28.88-12.52-29.064-28.384c-0.008-0.904,0.024-1.816,0.096-2.72c-1.432-16.24,10.576-30.56,26.808-31.984
	c1.04-0.088,2.088-0.128,3.136-0.112c15.808-0.336,28.896,12.216,29.232,28.024C211.648,150.104,211.616,151.136,211.528,152.16z
	 M163.528,152.784c0,13.248,7.616,23.2,18.352,23.2c10.504,0,18.4-9.864,18.4-23.48c0-10.24-5.128-23.2-18.12-23.2
	s-18.592,12-18.592,23.496L163.528,152.784z"/>
<path style="fill:#666666;" d="M280.144,152.16c1.416,16.256-10.616,30.576-26.872,31.992c-1.072,0.096-2.152,0.128-3.232,0.104
	c-15.864,0.184-28.88-12.52-29.064-28.384c-0.008-0.904,0.024-1.816,0.096-2.72c-1.432-16.24,10.576-30.56,26.808-31.984
	c1.048-0.096,2.096-0.128,3.152-0.112c15.808-0.328,28.888,12.232,29.216,28.04C280.264,150.12,280.232,151.144,280.144,152.16z
	 M232.144,152.784c0,13.248,7.616,23.2,18.352,23.2c10.504,0,18.4-9.864,18.4-23.48c0-10.24-5.128-23.2-18.12-23.2
	s-18.592,12-18.592,23.496L232.144,152.784z"/>
<path d="M346.128,122.4c-0.248,4.376-0.496,9.256-0.496,16.632v35.088c0,13.872-2.76,22.4-8.616,27.592
	c-6.168,5.072-14.008,7.656-21.984,7.248c-7.032,0.176-13.984-1.544-20.12-4.984l2.76-8.368c5.368,3.168,11.504,4.808,17.736,4.736
	c11.2,0,19.48-5.872,19.48-21.096v-6.744h-0.248c-4.12,6.576-11.448,10.432-19.2,10.112c-14.992,0-25.728-12.744-25.728-29.48
	c0-20.472,13.352-32.096,27.2-32.096c7.792-0.456,15.144,3.64,18.856,10.504H336l0.496-9.136L346.128,122.4z M334.752,146.256
	c0.064-1.688-0.152-3.368-0.624-4.984c-1.904-6.904-8.208-11.672-15.368-11.624c-10.488,0-17.984,8.864-17.984,22.856
	c0,11.872,6,21.736,17.856,21.736c6.96-0.048,13.088-4.568,15.2-11.2c0.592-1.904,0.888-3.88,0.872-5.872L334.752,146.256z"/>
<path d="M363.896,94.208h11v88.68h-11V94.208z"/>
<path style="fill:#E21B1B;" d="M399.496,154.656c-0.928,10.656,6.96,20.048,17.616,20.968c1.032,0.088,2.072,0.096,3.104,0.024
	c5.744,0.176,11.456-0.88,16.752-3.112l1.872,7.872c-6.368,2.648-13.224,3.92-20.12,3.736
	c-15.472,0.968-28.792-10.784-29.768-26.248c-0.088-1.408-0.072-2.824,0.056-4.232c0-18.232,10.736-32.6,28.344-32.6
	c19.744,0,24.976,17.36,24.976,28.488c-0.016,1.712-0.144,3.416-0.376,5.112L399.496,154.656z M431.72,146.784
	c1.224-8.552-4.728-16.48-13.28-17.704c-0.64-0.088-1.28-0.144-1.92-0.152c-9.384,0.704-16.696,8.44-16.856,17.856L431.72,146.784
	L431.72,146.784z"/>
<g>
	<rect x="71.28" y="242.784" style="fill:#CCCCCC;" width="370.64" height="8"/>
	<rect x="138.712" y="277.536" style="fill:#CCCCCC;" width="235.776" height="8"/>
</g>
<g>
</g>
<g>
</g>
<g>
</g>
<g>
</g>
<g>
</g>
<g>
</g>
<g>
</g>
<g>
</g>
<g>
</g>
<g>
</g>
<g>
</g>
<g>
</g>
<g>
</g>
<g>
</g>
<g>
</g>
</svg>
