<?xml version="1.0" encoding="iso-8859-1"?>
<!-- Generator: Adobe Illustrator 19.0.0, SVG Export Plug-In . SVG Version: 6.00 Build 0)  -->
<svg version="1.1" id="Layer_1" xmlns="http://www.w3.org/2000/svg" xmlns:xlink="http://www.w3.org/1999/xlink" x="0px" y="0px"
	 viewBox="0 0 392.598 392.598" style="enable-background:new 0 0 392.598 392.598;" xml:space="preserve">
<path style="fill:#FFC10D;" d="M32.711,272.113c-6.012,0-10.925,4.848-10.925,10.925v59.345c0,6.012,4.848,10.925,10.925,10.925
	h327.111c6.012,0,10.925-4.848,10.925-10.925v-59.345c0-6.012-4.848-10.925-10.925-10.925"/>
<g>
	<path style="fill:#194F82;" d="M359.822,250.327H91.733V90.392c0-6.012-4.848-10.925-10.925-10.925s-10.925,4.848-10.925,10.925
		v159.871H32.711C14.675,250.263,0,264.937,0,282.974v59.345c0,18.036,14.675,32.711,32.711,32.711h10.99v6.594
		c0,6.012,4.848,10.925,10.925,10.925s10.925-4.848,10.925-10.925v-6.594h261.43v6.594c0,6.012,4.849,10.925,10.925,10.925
		s10.925-4.848,10.925-10.925v-6.594h11.055c18.036,0,32.711-14.675,32.711-32.711v-59.345
		C392.533,265.002,377.859,250.327,359.822,250.327z M370.747,342.319c0,6.012-4.848,10.925-10.925,10.925H32.711
		c-6.012,0-10.925-4.848-10.925-10.925v-59.345c0-6.012,4.848-10.925,10.925-10.925h58.44v23.337
		c0,6.012,4.848,10.925,10.925,10.925c6.077,0,10.925-4.848,10.925-10.925v-23.337h21.786v45.123
		c0,6.012,4.848,10.925,10.925,10.925c6.077,0,10.925-4.848,10.925-10.925v-45.123h203.313c6.012,0,10.925,4.849,10.925,10.925
		v59.345H370.747z"/>
	<path style="fill:#194F82;" d="M170.537,162.15c-4.267,4.267-4.267,11.119,0,15.451c4.267,4.267,11.119,4.267,15.451,0
		c52.752-54.95,43.248-131.749,0-174.352c-4.267-4.267-11.119-4.267-15.451,0c-4.331,4.267-4.267,11.119,0,15.451
		C210.101,58.198,210.101,122.586,170.537,162.15z"/>
	<path style="fill:#194F82;" d="M141.382,132.994c-4.267,4.267-4.267,11.119,0,15.451c4.267,4.267,11.119,4.267,15.451,0
		c34.457-36.137,29.737-86.238,0-116.04c-4.267-4.267-11.119-4.267-15.451,0c-4.267,4.267-4.267,11.119,0,15.451
		C164.913,71.257,164.913,109.527,141.382,132.994z"/>
	<path style="fill:#194F82;" d="M112.291,119.224c4.267,4.267,11.119,4.267,15.451,0c16.873-17.907,15.127-42.085,0-57.794
		c-4.267-4.267-11.119-4.267-15.451,0c-4.267,4.267-4.267,11.119,0,15.451c7.434,7.434,7.434,19.523,0,26.958
		C108.024,108.105,108.024,115.022,112.291,119.224z"/>
	<path style="fill:#194F82;" d="M203.701,301.786h-14.804c-6.012,0-10.925,4.848-10.925,10.925c0,6.012,4.848,10.925,10.925,10.925
		h14.804c6.012,0,10.925-4.848,10.925-10.925C214.562,306.634,209.713,301.786,203.701,301.786z"/>
	<path style="fill:#194F82;" d="M266.925,301.786h-14.869c-6.012,0-10.925,4.848-10.925,10.925c0,6.012,4.848,10.925,10.925,10.925
		h14.869c6.012,0,10.925-4.848,10.925-10.925C277.786,306.634,272.937,301.786,266.925,301.786z"/>
	<path style="fill:#194F82;" d="M330.149,301.786h-14.869c-6.012,0-10.925,4.848-10.925,10.925c0,6.012,4.849,10.925,10.925,10.925
		h14.869c6.012,0,10.925-4.848,10.925-10.925S336.162,301.786,330.149,301.786z"/>
</g>
<g>
</g>
<g>
</g>
<g>
</g>
<g>
</g>
<g>
</g>
<g>
</g>
<g>
</g>
<g>
</g>
<g>
</g>
<g>
</g>
<g>
</g>
<g>
</g>
<g>
</g>
<g>
</g>
<g>
</g>
</svg>
